<svg width="320" height="767" fill="none" xmlns="http://www.w3.org/2000/svg"><path opacity=".2" d="m1 692.59 44.238-24.447 44.238 24.447v48.82l-44.238 24.447L1 741.41v-48.82Z" stroke="#7A1818" stroke-width="2"/><path opacity=".2" d="m69.262 723.207 22.119-12.002 22.119 12.002v23.95l-22.119 12.001-22.119-12.001v-23.95Z" stroke="#F7F7F7"/><path opacity=".2" d="m1 465.59 44.238-24.447 44.238 24.447v48.82l-44.238 24.447L1 514.41v-48.82Z" stroke="#7A1818" stroke-width="2"/><path opacity=".2" d="m69.262 496.207 22.119-12.002 22.119 12.002v23.95l-22.119 12.001-22.119-12.001v-23.95Z" stroke="#F7F7F7"/><path opacity=".2" d="m1 238.59 44.238-24.447 44.238 24.447v48.82l-44.238 24.447L1 287.41v-48.82Z" stroke="#7A1818" stroke-width="2"/><path opacity=".2" d="m69.262 269.207 22.119-12.002 22.119 12.002v23.95l-22.119 12.001-22.119-12.001v-23.95Z" stroke="#F7F7F7"/><path opacity=".2" d="m207 565.59 44.238-24.447 44.238 24.447v48.82l-44.238 24.447L207 614.41v-48.82Z" stroke="#7A1818" stroke-width="2"/><path opacity=".2" d="m275.262 596.207 22.119-12.002 22.119 12.002v23.95l-22.119 12.001-22.119-12.001v-23.95Z" stroke="#F7F7F7"/><path opacity=".2" d="m207 338.59 44.238-24.447 44.238 24.447v48.82l-44.238 24.447L207 387.41v-48.82Z" stroke="#7A1818" stroke-width="2"/><path opacity=".2" d="m275.262 369.207 22.119-12.002 22.119 12.002v23.95l-22.119 12.001-22.119-12.001v-23.95Z" stroke="#F7F7F7"/><path opacity=".2" d="m207 111.59 44.238-24.448 44.238 24.448v48.82l-44.238 24.447L207 160.41v-48.82Z" stroke="#7A1818" stroke-width="2"/><path opacity=".2" d="m275.262 142.207 22.119-12.002 22.119 12.002v23.95l-22.119 12.001-22.119-12.001v-23.95Z" stroke="#F7F7F7"/></svg>