<svg width="35" height="35" fill="none" xmlns="http://www.w3.org/2000/svg"><path fill="#070707" d="M0 0h35v35H0z"/><path d="M7.73 27.27c.29.293.582.438 1.02.438.437 0 .73-.145 1.02-.437l7.73-7.73 7.73 7.73c.29.292.728.437 1.02.437.292 0 .73-.145 1.02-.437.584-.583.584-1.458 0-2.042L19.543 17.5l7.729-7.73c.583-.582.583-1.457 0-2.04-.584-.584-1.459-.584-2.042 0L17.5 15.457 9.77 7.73c-.583-.583-1.458-.583-2.04 0-.584.584-.584 1.459 0 2.042l7.728 7.73-7.729 7.728c-.583.584-.583 1.459 0 2.042Z" fill="#F7F7F7"/></svg>