<?xml version="1.0" standalone="no"?>
<!DOCTYPE svg PUBLIC "-//W3C//DTD SVG 1.1//EN" "http://www.w3.org/Graphics/SVG/1.1/DTD/svg11.dtd" >
<svg xmlns="http://www.w3.org/2000/svg">
<metadata>Generated by IcoMoon</metadata>
<defs>
<font id="icomoon" horiz-adv-x="1024">
<font-face units-per-em="1024" ascent="960" descent="-64" />
<missing-glyph horiz-adv-x="1024" />
<glyph unicode="&#x20;" horiz-adv-x="512" d="" />
<glyph unicode="&#xe900;" horiz-adv-x="1365" d="M1275.022 758.723c-14.217 54.543-56.064 97.503-109.215 112.079-96.324 26.497-482.617 26.497-482.617 26.497s-386.29 0-482.612-26.497c-53.152-14.576-95.013-57.536-109.214-112.079-25.822-98.879-25.822-305.158-25.822-305.158s0-206.281 25.809-305.159c14.2-54.539 56.061-97.502 109.214-112.077 96.335-26.499 482.625-26.499 482.625-26.499s386.293 0 482.628 26.499c53.157 14.586 95.004 57.537 109.215 112.077 25.81 98.879 25.81 305.159 25.81 305.159s0 206.279-25.822 305.158z" />
<glyph unicode="&#xe901;" horiz-adv-x="1365" d="M554.722 644.007v-380.873l328.301 190.424-328.301 190.449z" />
<glyph unicode="&#xe902;" glyph-name="StrilkaLeft" horiz-adv-x="694" d="M31.093 392.83l519.102-418.648c17.646-14.128 40.359-20.909 63.164-18.865 22.802 2.045 43.84 12.754 58.503 29.779s21.758 38.978 19.73 61.057c-2.028 22.075-13.011 42.476-30.548 56.73l-439.344 354.301 439.344 354.299c17.603 14.235 28.649 34.651 30.71 56.762s-5.034 44.11-19.72 61.164c-14.689 17.054-35.771 27.767-58.616 29.788s-45.585-4.817-63.224-19.012l-519.102-418.654c-9.734-7.868-17.563-17.712-22.936-28.831s-8.157-23.245-8.157-35.52c0-12.275 2.785-24.401 8.157-35.52s13.202-20.962 22.936-28.831z" />
<glyph unicode="&#xe903;" glyph-name="Mask" horiz-adv-x="1189" d="M93.713 277.015c69.443-72.942 181.785-168.93 288.929-163.153 11.244 0.565 22.432 2.418 33.505 5.014-14.557 23.975-27.153 47.388-37.759 68.595-33.65 67.462-39.123 141.738-27.1 211.020-38.162-3.828-73.532-16.734-103.883-36.547-12.728-8.308-29.854 0.502-25.668 15.324 17.522 59.762 70.684 104.884 135.61 108.511 4.796 0.271 9.754 0.34 14.498 0.066l58.345 235.226c6.061 24.73 20.288 58.026 53.506 79.028 36.319 22.72 97.871 46.485 194.497 45.944-1.328 1.413-2.659 2.826-3.99 4.239-33.97 31.904-124.274 88.336-332.113 77.071-207.838-11.266-292.166-77.039-322.74-112.423-11.766-13.538-14.996-31.754-14.174-49.812l15.098-302.868c3.439-68.76 26.312-135.73 73.423-185.417l0.018 0.182zM291.715 660.719c8.542 4.861 19.981 1.736 20.866-8.072 0.094-0.926 0.17-2.034 0.264-2.961 1.983-40.184-28.467-74.297-68.123-76.513s-73.351 28.741-75.353 68.745c-0.094 0.926 0.012 2.017-0.082 2.943-0.141 9.92 10.928 14.353 19.898 10.367 15.83-7.035 33.483-10.394 51.74-9.408s35.646 6.275 50.608 14.917l0.182-0.018zM430.632 213.606c45.188-90.413 124.994-215.539 229.042-241.747 104.052-26.208 232.871 46.268 314.844 104.749 55.742 39.553 91.030 100.897 107.599 167.903l72.869 294.36c4.268 17.567 4.588 36.065-4.364 51.606-23.225 40.587-93.382 121.304-295.209 172.197-201.824 50.893-301.089 12.798-340.543-12.004-15.231-9.534-23.608-25.968-27.876-43.533l-72.869-294.36c-16.556-66.828-14.055-137.695 16.688-199.191l-0.182 0.020zM717.55 469.649c-13.028 11.35-28.9 19.856-46.81 24.338-17.913 4.486-35.883 4.572-52.584 0.684-9.569-2.19-19.582 4.281-17.543 13.989 0.271 0.892 0.377 1.982 0.644 2.874 9.649 39.057 48.637 62.804 87.132 53.027s61.843-49.093 52.194-88.153c-0.268-0.889-0.555-1.962-0.826-2.854-2.748-9.457-14.574-10.329-22.026-3.924l-0.182 0.020zM962.368 417.531c-2.752-9.457-14.577-10.329-22.029-3.921-13.025 11.35-28.897 19.856-46.81 24.338-17.91 4.486-35.88 4.572-52.584 0.684-9.566-2.193-19.582 4.281-17.54 13.989 0.268 0.892 0.373 1.982 0.644 2.874 9.649 39.057 48.637 62.804 87.132 53.027s61.843-49.093 52.194-88.153c-0.271-0.889-0.558-1.962-0.826-2.854l-0.182 0.017zM925.445 238.754c-43.48-77.798-134.154-120.023-223.694-97.422-89.537 22.604-149.828 102.919-152.024 192.102-0.36 15.261 18.303 20.427 28.801 9.507 39.784-42.007 91.212-73.583 151.040-88.54 59.825-14.96 120.119-11.806 174.731 6.577 14.409 4.846 28.517-8.628 20.982-22.026l0.165-0.198z" />
<glyph unicode="&#xe905;" glyph-name="youtube" d="M206.183 832h611.635c87.008 0 157.538-70.532 157.538-157.538v-452.923c0-87.005-70.53-157.538-157.538-157.538h-611.635c-87.006 0-157.538 70.534-157.538 157.538v452.923c0 87.006 70.532 157.538 157.538 157.538zM654.883 483.226l-213.882 106.942c-26.187 13.093-56.999-5.949-56.999-35.227v-213.882c0-29.279 30.812-48.321 56.999-35.226l213.882 106.941c29.026 14.513 29.026 55.938 0 70.451z" />
<glyph unicode="&#xe906;" d="M446.33 867.199l-426.737-409.618c-14.4-13.926-21.314-31.846-19.229-49.842s12.999-34.593 30.353-46.165c17.354-11.571 39.733-17.172 62.236-15.569 22.503 1.598 43.297 10.267 57.828 24.104l361.147 346.683 361.147-346.683c14.51-13.891 35.324-22.608 57.86-24.233s44.963 3.971 62.344 15.56c17.386 11.593 28.307 28.227 30.364 46.254 2.061 18.027-4.911 35.969-19.376 49.891l-426.75 409.618c-8.018 7.68-18.054 13.859-29.384 18.098-11.335 4.24-23.694 6.437-36.21 6.437-12.511 0-24.87-2.197-36.205-6.437-11.331-4.239-21.366-10.418-29.389-18.098z" />
<glyph unicode="&#xe907;" d="M455.092 525.865l-369.839-409.618c-12.479-13.926-18.472-31.846-16.665-49.842s11.266-34.593 26.306-46.165c15.040-11.571 34.435-17.168 53.938-15.569s37.524 10.267 50.117 24.104l312.993 346.682 312.997-346.682c12.573-13.891 30.609-22.604 50.145-24.233 19.532-1.625 38.965 3.971 54.032 15.565 15.066 11.589 24.531 28.222 26.317 46.249s-4.256 35.974-16.798 49.891l-369.847 409.618c-6.95 7.681-15.645 13.859-25.466 18.099-9.826 4.239-20.538 6.437-31.379 6.437-10.845 0-21.557-2.197-31.379-6.437s-18.517-10.418-25.471-18.099z" />
<glyph unicode="&#xe908;" glyph-name="telegram" d="M275.692 881.231h459.618c108.757 0 196.923-88.166 196.923-196.923v-459.618c0-108.757-88.166-196.923-196.923-196.923h-459.618c-108.757 0-196.923 88.166-196.923 196.923v459.618c0 108.757 88.166 196.923 196.923 196.923zM787.393 759.779l-606.077-261.934c-36.456-15.754-29.318-69.447 9.987-75.13l143.481-20.752c38.61-5.585 77.92 3.356 110.314 25.088l190.913 128.075c7.428 4.982 16.096-4.309 10.606-11.374l-96.020-123.581c-23.836-30.677-21.744-74.149 4.923-102.4l135.991-144.049c22.449-23.78 62.421-11.425 67.537 20.87l82.869 522.869c4.86 30.667-26.021 54.636-54.524 42.318z" />
<glyph unicode="&#xe909;" glyph-name="Instagram" d="M282.26 874.666c-108.758 0-196.923-88.165-196.923-196.923v-459.489c0-108.757 88.165-196.923 196.923-196.923h459.487c108.757 0 196.923 88.166 196.923 196.923v459.489c0 108.758-88.166 196.923-196.923 196.923h-459.487zM768.004 661.333c-23.564 0-42.669 19.102-42.669 42.667s19.105 42.667 42.669 42.667c23.564 0 42.665-19.102 42.665-42.667s-19.102-42.667-42.665-42.667zM725.335 448c0-117.823-95.512-213.335-213.331-213.335-117.823 0-213.334 95.512-213.334 213.335 0 117.819 95.511 213.333 213.334 213.333 117.819 0 213.331-95.514 213.331-213.333zM512.004 320c70.691 0 128 57.309 128 128s-57.309 127.999-128 127.999c-70.691 0-128.001-57.308-128.001-127.999s57.309-128 128.001-128z" />
<glyph unicode="&#xe90a;" glyph-name="fecebook" d="M768.004 874.666h-512.001c-94.256 0-170.667-76.41-170.667-170.667v-511.999c0-94.259 76.41-170.669 170.667-170.669h192.001v256h-149.334v128h149.334v98.462c0 87.008 70.53 157.54 157.538 157.54h119.792v-128.002h-109.946c-21.752 0-39.385-17.632-39.385-39.385v-88.615h149.331v-128h-149.331v-256h192c94.255 0 170.665 76.41 170.665 170.669v511.999c0 94.256-76.41 170.667-170.665 170.667z" />
<glyph unicode="&#xe90b;" glyph-name="scrollWhite" horiz-adv-x="1047" d="M563.605 885.988c-22.216 22.216-58.238 22.216-80.455 0l-362.038-362.039c-22.216-22.216-22.216-58.236 0-80.452s58.237-22.216 80.453 0l321.812 321.811 321.811-321.811c22.216-22.216 58.238-22.216 80.455 0s22.216 58.236 0 80.452l-362.039 362.039zM580.267 823.006v22.756h-113.778v-22.756h113.778zM555.559 536.61c-17.772 17.772-46.59 17.772-64.362-0.002l-289.631-289.63c-17.773-17.772-17.773-46.59 0-64.362s46.588-17.772 64.362 0l257.45 257.45 257.45-257.45c17.774-17.772 46.59-17.772 64.362 0 17.774 17.774 17.774 46.59 0 64.362l-289.63 289.633zM568.889 481.671v22.756h-91.022v-22.756h91.022z" />
<glyph unicode="&#xe90c;" glyph-name="StrilkaBottom" horiz-adv-x="1536" d="M669.498 75.203l-640.108 614.429c-21.6 20.888-31.971 47.77-28.844 74.761s19.499 51.892 45.53 69.248c26.031 17.357 59.599 25.754 93.354 23.354s64.946-15.402 86.742-36.158l541.721-520.023 541.721 520.023c21.77 20.836 52.982 33.911 86.794 36.349 33.802 2.439 67.441-5.957 93.512-23.342 26.081-17.384 42.455-42.338 45.548-69.379s-7.363-53.956-29.071-74.833l-640.116-614.429c-12.033-11.521-27.082-20.788-44.082-27.147s-35.541-9.655-54.309-9.655-37.307 3.296-54.308 9.655c-17.001 6.359-32.050 15.626-44.083 27.147z" />
<glyph unicode="&#xe90d;" glyph-name="location" d="M416 576c0 53.019 42.982 96 96 96s96-42.981 96-96c0-53.018-42.982-96-96-96s-96 42.982-96 96zM505.088 853.333h13.824c136.631 0 250.428-104.799 261.649-240.972 6.037-73.204-16.576-145.891-63.074-202.758l-153.374-187.575c-26.935-32.939-77.291-32.939-104.222 0l-153.38 187.575c-46.496 56.866-69.108 129.553-63.074 202.758 11.225 136.172 125.018 240.972 261.651 240.972zM512 736c-88.366 0-160-71.634-160-160 0-88.367 71.634-160 160-160s160 71.633 160 160c0 88.366-71.633 160-160 160zM312.977 305.954c15.807-7.902 22.214-27.123 14.311-42.931l-62.178-124.356h493.78l-62.178 124.356c-7.906 15.808-1.498 35.029 14.31 42.931 15.808 7.906 35.029 1.498 42.931-14.31l85.333-170.667c4.962-9.92 4.429-21.7-1.399-31.134-5.833-9.434-16.132-15.177-27.221-15.177h-597.333c-11.090 0-21.39 5.743-27.221 15.177s-6.361 21.214-1.401 31.134l85.333 170.667c7.904 15.808 27.125 22.217 42.932 14.31z" />
<glyph unicode="&#xe90e;" glyph-name="strilkaTopRed" horiz-adv-x="1536" d="M669.498 820.797l-640.108-614.429c-21.6-20.888-31.971-47.77-28.844-74.761s19.499-51.892 45.53-69.248c26.031-17.357 59.599-25.755 93.354-23.354s64.946 15.402 86.742 36.158l541.721 520.023 541.721-520.023c21.77-20.836 52.982-33.911 86.794-36.349 33.802-2.439 67.441 5.957 93.512 23.342 26.081 17.384 42.455 42.338 45.548 69.379 3.092 27.040-7.363 53.956-29.071 74.833l-640.116 614.429c-12.033 11.521-27.082 20.788-44.082 27.147s-35.541 9.655-54.309 9.655-37.307-3.296-54.308-9.655c-17.001-6.359-32.050-15.626-44.083-27.147z" />
<glyph unicode="&#xe90f;" glyph-name="Phone" d="M213.346 539.284c81.766-178.085 227.26-319.674 408.145-396.432l28.996-12.919c66.338-29.559 144.324-7.104 184.785 53.205l37.892 56.478c12.322 18.364 8.567 43.098-8.64 56.981l-128.508 103.671c-18.871 15.228-46.63 11.678-61.069-7.804l-39.753-53.645c-102.007 50.321-184.828 133.137-235.145 235.145l53.641 39.753c19.486 14.439 23.031 42.195 7.804 61.070l-103.673 128.509c-13.882 17.207-38.607 20.96-56.969 8.648l-56.868-38.131c-60.687-40.691-83.017-119.319-52.778-185.835l22.138-48.696z" />
<glyph unicode="&#xe910;" glyph-name="Pause" d="M414.612 680.979c7.875-7.363 12.87-17.766 12.87-29.399v-387.064c0-22.281-18.062-40.346-40.344-40.346h-91.29c-2.396 0-4.71 0.307-6.994 0.708 7.209-6.737 16.824-10.948 27.474-10.948h91.29c22.283 0 40.344 18.065 40.344 40.35v387.060c0 19.886-14.417 36.311-33.35 39.639zM704.435 681.359c7.872-7.363 12.873-17.766 12.873-29.399v-387.060c0-22.285-18.065-40.346-40.346-40.346h-91.29c-2.398 0-4.71 0.307-6.997 0.704 7.211-6.737 16.828-10.944 27.477-10.944h91.29c22.281 0 40.346 18.061 40.346 40.346v387.060c0 19.886-14.421 36.321-33.353 39.639zM407.614 213.935h-91.29c-22.282 0-40.346 18.065-40.346 40.346v387.061c0 22.282 18.063 40.346 40.346 40.346h91.29c22.282 0 40.347-18.063 40.347-40.346v-387.061c0-22.281-18.065-40.346-40.347-40.346zM697.438 214.31h-91.29c-22.285 0-40.346 18.065-40.346 40.346v387.063c0 22.282 18.061 40.346 40.346 40.346h91.29c22.281 0 40.346-18.063 40.346-40.346v-387.063c0-22.281-18.065-40.346-40.346-40.346z" />
<glyph unicode="&#xe911;" glyph-name="Play" horiz-adv-x="960" d="M913.030 350.962c63.482 49.119 63.482 144.956 0 194.075-191.846 148.442-406.065 265.443-634.644 346.626l-41.758 14.831c-79.89 28.374-164.275-25.678-175.090-108.145-30.218-230.413-30.218-470.285 0-700.698 10.815-82.47 95.2-136.518 175.089-108.147l41.759 14.835c228.579 81.178 442.797 198.182 634.644 346.623z" />
<glyph unicode="&#xe912;" d="M1024 448c0-282.77-229.23-512-512-512s-512 229.23-512 512c0 282.77 229.23 512 512 512s512-229.23 512-512z" />
<glyph unicode="&#xe913;" d="M379.391 197.146v23.917l-158.483 75.258v294.649l283.215 147.962h16.142l282.852-148.6v-294.332l-152.25-75.251v-23.603l175.354 88.013v319.523l-305.956 158.166h-16.142l-307.060-158.166v-318.563l182.328-88.973z" />
<glyph unicode="&#xe914;" d="M520.263 310.048l23.031-13.549v8.467h28.506v-23.962l44.74-20.346v-83.194l-96.088-49.389h-17.18l-95.711 49.555v83.027l96.277 49.389h16.424zM520.371 285.517h-16.701l-73.885-39.373v-54.010l73.885-39.245h16.844l73.603 39.123v53.888l-73.744 39.616z" />
<glyph unicode="&#xe915;" d="M509.428 245.798v14.771h-16.991v-14.771h16.991z" />
<glyph unicode="&#xe916;" d="M532.069 260.858h-16.991v-14.765h16.991v14.765z" />
<glyph unicode="&#xe917;" d="M509.335 226.362v14.765h-16.991v-14.765h16.991z" />
<glyph unicode="&#xe918;" d="M531.913 241.261h-16.991v-14.771h16.991v14.771z" />
<glyph unicode="&#xe919;" glyph-name="Frame-131" d="M446.33 867.199l-426.737-409.618c-14.4-13.926-21.314-31.846-19.229-49.842s12.999-34.593 30.353-46.165c17.354-11.571 39.733-17.172 62.236-15.569 22.503 1.598 43.297 10.267 57.828 24.104l361.147 346.683 361.147-346.683c14.51-13.891 35.324-22.608 57.86-24.233s44.963 3.971 62.344 15.56c17.386 11.593 28.307 28.227 30.364 46.254 2.061 18.027-4.911 35.969-19.376 49.891l-426.75 409.618c-8.018 7.68-18.054 13.859-29.384 18.098-11.335 4.24-23.694 6.437-36.21 6.437-12.511 0-24.87-2.197-36.205-6.437-11.331-4.239-21.366-10.418-29.389-18.098zM455.092 525.865l-369.839-409.618c-12.479-13.926-18.472-31.846-16.665-49.842s11.266-34.593 26.306-46.165c15.040-11.571 34.435-17.168 53.938-15.569s37.524 10.267 50.117 24.104l312.993 346.682 312.997-346.682c12.573-13.891 30.609-22.604 50.145-24.233 19.532-1.625 38.965 3.971 54.032 15.565 15.066 11.589 24.531 28.222 26.317 46.249s-4.256 35.974-16.798 49.891l-369.847 409.618c-6.95 7.681-15.645 13.859-25.466 18.099-9.826 4.239-20.538 6.437-31.379 6.437-10.845 0-21.557-2.197-31.379-6.437s-18.517-10.418-25.471-18.099z" />
<glyph unicode="&#xe91a;" glyph-name="Envelope" d="M311.008 750.609c133.745 11.626 268.248 11.626 401.991 0l64.435-5.601c42.897-3.729 79.637-29.315 98.671-65.914 2.436-4.682 0.61-10.351-3.878-13.129l-267.345-165.502c-57.34-35.494-129.638-36.237-187.696-1.933l-269.134 159.034c-4.348 2.569-6.344 7.858-4.384 12.513 17.415 41.368 56.567 70.901 102.904 74.929l64.436 5.602zM143.448 585.946c-6.655 3.932-15.145-0.3-15.921-7.99-10.826-107.335-8.206-215.683 7.86-322.524 8.47-56.324 54.44-99.507 111.184-104.439l64.436-5.602c133.745-11.627 268.248-11.627 401.991 0l64.435 5.602c56.747 4.932 102.716 48.115 111.185 104.439 16.533 109.952 18.829 221.508 6.878 331.905-0.836 7.745-9.472 11.898-16.094 7.798l-240.836-149.090c-77.577-48.021-175.39-49.028-253.94-2.615l-241.178 142.516z" />
</font>
</defs>
</svg>
