<svg xmlns="http://www.w3.org/2000/svg" width="1024" height="4612" fill="none"><path stroke="#7A1818" stroke-width="3" d="M825.156 3979.13 899 3937.72l73.844 41.41v82.74L899 4103.28l-73.844-41.41v-82.74Z" opacity=".4"/><path stroke="#F7F7F7" stroke-width="2" d="M911.172 4038.09 963 4009.15l51.83 28.94v57.82L963 4124.85l-51.828-28.94v-57.82Z" opacity=".4"/><path stroke="#7A1818" stroke-width="3" d="M825.156 3323.13 899 3281.72l73.844 41.41v82.74L899 3447.28l-73.844-41.41v-82.74Z" opacity=".4"/><path stroke="#F7F7F7" stroke-width="2" d="M911.172 3382.09 963 3353.15l51.83 28.94v57.82L963 3468.85l-51.828-28.94v-57.82Z" opacity=".4"/><path stroke="#7A1818" stroke-width="3" d="M825.156 2667.13 899 2625.72l73.844 41.41v82.74L899 2791.28l-73.844-41.41v-82.74Z" opacity=".4"/><path stroke="#F7F7F7" stroke-width="2" d="M911.172 2726.09 963 2697.15l51.83 28.94v57.82L963 2812.85l-51.828-28.94v-57.82Z" opacity=".4"/><path stroke="#7A1818" stroke-width="3" d="M825.156 2011.13 899 1969.72l73.844 41.41v82.74L899 2135.28l-73.844-41.41v-82.74Z" opacity=".4"/><path stroke="#F7F7F7" stroke-width="2" d="M911.172 2070.09 963 2041.15l51.83 28.94v57.82L963 2156.85l-51.828-28.94v-57.82Z" opacity=".4"/><path stroke="#7A1818" stroke-width="3" d="M825.156 1355.13 899 1313.72l73.844 41.41v82.74L899 1479.28l-73.844-41.41v-82.74Z" opacity=".4"/><path stroke="#F7F7F7" stroke-width="2" d="M911.172 1414.09 963 1385.15l51.83 28.94v57.82L963 1500.85l-51.828-28.94v-57.82Z" opacity=".4"/><path stroke="#7A1818" stroke-width="3" d="M825.156 699.129 899 657.72l73.844 41.409v82.742L899 823.28l-73.844-41.409v-82.742Z" opacity=".4"/><path stroke="#F7F7F7" stroke-width="2" d="M911.172 758.087 963 729.145l51.83 28.942v57.826L963 844.855l-51.828-28.942v-57.826Z" opacity=".4"/><path stroke="#7A1818" stroke-width="3" d="M54.156 4445.13 128 4403.72l73.844 41.41v82.74L128 4569.28l-73.844-41.41v-82.74Z" opacity=".4"/><path stroke="#F7F7F7" stroke-width="2" d="M140.172 4504.09 192 4475.15l51.828 28.94v57.82L192 4590.85l-51.828-28.94v-57.82Z" opacity=".4"/><path stroke="#7A1818" stroke-width="3" d="M54.156 3789.13 128 3747.72l73.844 41.41v82.74L128 3913.28l-73.844-41.41v-82.74Z" opacity=".4"/><path stroke="#F7F7F7" stroke-width="2" d="M140.172 3848.09 192 3819.15l51.828 28.94v57.82L192 3934.85l-51.828-28.94v-57.82Z" opacity=".4"/><path stroke="#7A1818" stroke-width="3" d="M54.156 3133.13 128 3091.72l73.844 41.41v82.74L128 3257.28l-73.844-41.41v-82.74Z" opacity=".4"/><path stroke="#F7F7F7" stroke-width="2" d="M140.172 3192.09 192 3163.15l51.828 28.94v57.82L192 3278.85l-51.828-28.94v-57.82Z" opacity=".4"/><path stroke="#7A1818" stroke-width="3" d="M54.156 2477.13 128 2435.72l73.844 41.41v82.74L128 2601.28l-73.844-41.41v-82.74Z" opacity=".4"/><path stroke="#F7F7F7" stroke-width="2" d="M140.172 2536.09 192 2507.15l51.828 28.94v57.82L192 2622.85l-51.828-28.94v-57.82Z" opacity=".4"/><path stroke="#7A1818" stroke-width="3" d="M54.156 1821.13 128 1779.72l73.844 41.41v82.74L128 1945.28l-73.844-41.41v-82.74Z" opacity=".4"/><path stroke="#F7F7F7" stroke-width="2" d="M140.172 1880.09 192 1851.15l51.828 28.94v57.82L192 1966.85l-51.828-28.94v-57.82Z" opacity=".4"/><path stroke="#7A1818" stroke-width="3" d="M54.156 1165.13 128 1123.72l73.844 41.41v82.74L128 1289.28l-73.844-41.41v-82.74Z" opacity=".4"/><path stroke="#F7F7F7" stroke-width="2" d="M140.172 1224.09 192 1195.15l51.828 28.94v57.82L192 1310.85l-51.828-28.94v-57.82Z" opacity=".4"/><path stroke="#7A1818" stroke-width="3" d="M825.156 43.129 899 1.719l73.844 41.41v82.742L899 167.28l-73.844-41.409V43.129Z" opacity=".4"/><path stroke="#F7F7F7" stroke-width="2" d="M911.172 102.087 963 73.145l51.83 28.942v57.826L963 188.855l-51.828-28.942v-57.826Z" opacity=".4"/><path stroke="#7A1818" stroke-width="3" d="M54.156 585.129 128 543.72l73.844 41.409v82.742L128 709.28l-73.844-41.409v-82.742Z" opacity=".4"/><path stroke="#F7F7F7" stroke-width="2" d="M140.172 644.087 192 615.145l51.828 28.942v57.826L192 730.855l-51.828-28.942v-57.826Z" opacity=".4"/></svg>