<svg width="90" height="90" fill="none" xmlns="http://www.w3.org/2000/svg"><g opacity=".4" clip-path="url(#a)" fill="#6D0202"><path d="M26.352 80.277v-3.364L4.065 66.33V24.895L43.893 4.088h2.27l39.775 20.897v41.39l-21.41 10.583v3.319L89.188 67.9V22.967L46.162.725h-2.27L.713 22.967v44.798l25.64 12.512Z" stroke="#6D0202"/><path fill-rule="evenodd" clip-rule="evenodd" d="M46.161 64.399h-2.31l-13.538 6.946V83.02l13.459 6.968h2.416L59.7 83.044v-11.7l-6.291-2.86v-3.37H49.4v1.19L46.161 64.4Zm.015 3.45h-2.348l-10.39 5.537v7.595l10.39 5.52h2.368l10.35-5.503V73.42l-10.37-5.57Z"/><path d="M44.64 73.434v-2.077h-2.39v2.077h2.39ZM47.822 71.317h-2.389v2.077h2.39v-2.077ZM44.625 76.168v-2.077h-2.39v2.077h2.39ZM47.8 74.073h-2.389v2.077h2.39v-2.077Z"/></g><defs><clipPath id="a"><path fill="#fff" d="M0 0h90v90H0z"/></clipPath></defs></svg>