<svg width="37" height="35" fill="none" xmlns="http://www.w3.org/2000/svg"><path opacity=".9" d="M5.13 25.572c2.34 2.474 6.061 5.653 9.331 5.05a4.978 4.978 0 0 0 1.014-.308 37.072 37.072 0 0 1-1.355-2.426c-1.226-2.398-1.607-5.153-1.437-7.784-1.16.281-2.208.891-3.082 1.74-.367.357-.917.09-.831-.479.366-2.295 1.867-4.173 3.848-4.543.147-.027.299-.048.445-.055l1.115-8.996c.115-.946.456-2.24 1.415-3.145 1.049-.98 2.869-2.09 5.834-2.419l-.134-.144C20.159.994 17.227-.787 10.883.384 4.54 1.556 2.143 4.317 1.307 5.75c-.323.549-.37 1.24-.292 1.912L2.346 18.92c.302 2.556 1.196 4.974 2.784 6.66v-.007Zm4.973-15.047c.248-.212.608-.137.664.226.005.035.01.076.016.11.176 1.494-.66 2.878-1.87 3.104-1.21.226-2.333-.809-2.509-2.295-.006-.035-.005-.076-.011-.11-.033-.37.294-.576.58-.46a2.87 2.87 0 0 0 1.615.165 3.193 3.193 0 0 0 1.51-.74h.005Zm5.544 16.198c1.646 3.214 4.453 7.6 7.72 8.202 3.267.603 7.011-2.57 9.358-5.05 1.596-1.678 2.503-4.097 2.819-6.66l1.39-11.258c.081-.671.038-1.363-.281-1.911-.829-1.432-3.213-4.194-9.55-5.365-6.337-1.172-9.273.61-10.412 1.678-.44.411-.65 1.056-.73 1.727L14.57 19.344c-.317 2.556-.037 5.194 1.083 7.38h-.006Zm8.067-10.6a3.15 3.15 0 0 0-1.505-.74 2.865 2.865 0 0 0-1.615.165c-.288.116-.613-.09-.579-.46.006-.033.006-.075.012-.109.184-1.494 1.312-2.521 2.52-2.295 1.21.226 2.039 1.61 1.855 3.104l-.018.11c-.057.362-.417.438-.664.225h-.006Zm7.66 1.062c-.057.364-.417.439-.664.227a3.15 3.15 0 0 0-1.506-.74 2.866 2.866 0 0 0-1.615.164c-.287.117-.613-.09-.578-.46.005-.033.005-.075.011-.109.184-1.493 1.312-2.521 2.52-2.295 1.21.226 2.039 1.61 1.855 3.104l-.017.11h-.006Zm-.62 6.811c-1.11 3.063-3.77 4.968-6.582 4.447-2.812-.52-4.892-3.302-5.215-6.626-.055-.568.503-.829.856-.459 1.341 1.425 3.01 2.419 4.888 2.762 1.878.342 3.718.006 5.34-.877.429-.233.9.219.708.747l.005.006Z" fill="#F7F7F7"/></svg>