<svg xmlns="http://www.w3.org/2000/svg" width="167" height="174" fill="none"><g opacity=".8"><path fill="#F7F7F7" d="M48.898 155.201v-6.502L7.544 128.238V48.13l73.9-40.227h4.213l73.806 40.4v80.022l-39.727 20.46v6.416l45.757-23.929v-86.87L85.657 1.401h-4.212L1.32 44.402v86.61l47.577 24.189Z"/><path fill="#F7F7F7" fill-rule="evenodd" d="M85.655 124.505h-4.286l-25.122 13.429v22.573L81.22 173.98h4.483l25.073-13.427v-22.619l-11.674-5.532v-6.514h-7.439v2.301l-6.01-3.684Zm.028 6.671h-4.358l-19.28 10.704v14.684l19.28 10.67h4.395l19.205-10.637v-14.65l-19.242-10.771Z" clip-rule="evenodd"/><path fill="#F7F7F7" d="M82.83 141.973v-4.015h-4.433v4.015h4.434ZM88.737 137.879h-4.433v4.015h4.433v-4.015ZM82.805 147.259v-4.016H78.37v4.016h4.434ZM88.696 143.207h-4.433v4.016h4.433v-4.016Z"/><path fill="#F41C1C" fill-rule="evenodd" d="M74.804 61.487c-11.563 5.939-11.657 18.25-5.192 22.644 4.72 2.655 9.015 1.496 11.941-5.939.551-2.875-.955-2.709-1.416-1.641-2.124 4.924-5.333 6.518-8.637 4.538-2.501-2.076-1.769-3.857 3.965-8.256 2.643-2.028 3.12-2.726 5.286-6.614 1.321-3.863-1.558-6.325-5.947-4.732Zm2.495 3.35c1.35-.71 1.675.25.994 1.488-1.557 1.963-3.495 3.583-4.913 3.696l-.165.001c-.657.006-1.11.01-.538-.982 1.53-1.882 2.719-3.204 4.622-4.204Z" clip-rule="evenodd"/><path fill="#F41C1C" d="M31.788 96.074c.521 1.513 3.646 2.194 4.338-.439 0-2.792-.254-2.507 0-6.232 1.024-4.192 1.805-6.556 3.779-10.812l15.923-32.782c1.416-2.298 3.846-3.683 7.904-4.215 8.037-.48 12.572-.637 20.91 0 1.317-1.998.924-5.382 0-5.381-10.764.007-16.646-.72-23.895 1.286-3.82 1.273-6.08 2.148-10.394 4.095-10.55 4.385-15.569 5.977-22.109 13.262-3.024 3.37-4.497 6.496-3.38 13.837.39 2.56 4.346 2.246 4.168 0-.399-5.045-.256-8.153 1.49-10.471 5.049-6.706 9.59-8.376 16.652-11.604 2.344-.902 2.833-.656 2.05 1.316L33.987 78.59c-3.123 8.351-3.33 14.2-2.198 17.483Z"/><path fill="#F41C1C" d="M56.945 83.305C40.254 79.686 24.492 72.78 24.492 67.322l.514-.798c1.28 6.494 15.398 12.034 32.368 15.705l-.43 1.076Z"/><path fill="#F41C1C" fill-rule="evenodd" d="M61.07 42.831c-4.28 3.416-8.977 20.218-10.978 34.459-.376 2.674 1.705 1.674 2.932-.628l6.666-10.83c1.657-2.278 2.479-.61 1.835 1.586-2.004 5.86-2.988 13.11-2.988 14.97 0 1.023.615 1.92 1.945 2.546 2.685 1.265 4.989-.1 3.502-1.83-1.266-1.473-2.371-3.102-2.459-3.582-.48-3.252 1.859-8.967 5.027-15.364 1.707-4.187-1.526-6.974-5.027-3.82l-5.698 6.355c-.796.578 1.038-6.916 1.913-7.653C62.168 55.31 63.058 54 63.058 54c2.755-3.579 6.643-11.454 4.859-13.217-1.583-2.298-4.803-.39-6.847 2.047Zm3.726 2.283c.493-1.668-.227-1.766-1.269-.285l-.032.046c-2.23 3.17-2.997 4.262-4.561 8.747-.75 2.15-.017 1.264 1.337-.372l.398-.48c.29-.424.543-.793.77-1.122 1.632-2.37 1.83-2.658 3.357-6.534Z" clip-rule="evenodd"/><path fill="#CECECE" d="M79.432 92.506v15.91h-1.747v-15.91h1.747Zm5.783 0v1.5H72.107v-1.5h13.108ZM93.082 108.71c-1.037 0-1.991-.191-2.862-.573a6.839 6.839 0 0 1-2.26-1.618 7.453 7.453 0 0 1-1.483-2.47c-.343-.961-.514-2.01-.514-3.147v-.632c0-1.225.181-2.333.543-3.323.362-.99.861-1.838 1.497-2.544a6.631 6.631 0 0 1 2.173-1.618 6.054 6.054 0 0 1 2.583-.573c1.008 0 1.903.181 2.686.544a5.262 5.262 0 0 1 1.967 1.514c.538.647.944 1.417 1.218 2.309.274.882.411 1.858.411 2.926v1.074H87.02v-1.5h10.274v-.206a6.469 6.469 0 0 0-.543-2.5 4.517 4.517 0 0 0-1.497-1.912c-.665-.49-1.497-.735-2.495-.735-.744 0-1.429.157-2.055.47a4.674 4.674 0 0 0-1.6 1.354c-.44.578-.783 1.27-1.027 2.073-.235.794-.352 1.676-.352 2.647v.632c0 .882.127 1.706.381 2.471a6.43 6.43 0 0 0 1.116 1.999 5.248 5.248 0 0 0 1.732 1.353c.665.324 1.399.486 2.201.486.94 0 1.771-.172 2.495-.515.725-.353 1.375-.907 1.953-1.662l1.1.853c-.342.51-.773.98-1.291 1.412-.509.431-1.12.774-1.835 1.029-.714.255-1.546.382-2.495.382ZM112.163 105.564v-8.206c0-.755-.157-1.406-.47-1.955-.313-.55-.773-.97-1.379-1.265-.607-.294-1.356-.441-2.246-.441-.822 0-1.556.147-2.202.441-.636.284-1.14.671-1.512 1.162a2.6 2.6 0 0 0-.543 1.603l-1.761-.015c0-.598.147-1.177.44-1.735a4.876 4.876 0 0 1 1.248-1.5 6.136 6.136 0 0 1 1.923-1.044c.753-.265 1.58-.397 2.48-.397 1.135 0 2.133.19 2.995.573.87.383 1.55.956 2.04 1.72.489.765.734 1.726.734 2.883v7.69c0 .549.039 1.118.117 1.706.088.588.21 1.074.367 1.456v.176h-1.864a7.19 7.19 0 0 1-.279-1.323 14.082 14.082 0 0 1-.088-1.529Zm.411-6.412.029 1.353h-3.449c-.9 0-1.707.083-2.422.25-.704.157-1.301.392-1.79.706-.49.304-.866.671-1.131 1.103a2.84 2.84 0 0 0-.381 1.47c0 .569.142 1.088.425 1.559a3.21 3.21 0 0 0 1.233 1.132c.538.275 1.175.412 1.908.412.979 0 1.84-.181 2.584-.544a5.484 5.484 0 0 0 1.864-1.426 4.7 4.7 0 0 0 .983-1.927l.763 1.015c-.127.49-.362.995-.704 1.514-.333.51-.768.991-1.306 1.442a6.97 6.97 0 0 1-1.909 1.088c-.724.274-1.546.411-2.465.411-1.038 0-1.943-.196-2.716-.588-.763-.392-1.36-.926-1.79-1.603-.421-.686-.632-1.46-.632-2.323 0-.784.167-1.485.499-2.103a4.462 4.462 0 0 1 1.439-1.588c.636-.441 1.399-.774 2.29-1 .9-.235 1.908-.353 3.023-.353h3.655ZM123.993 92.506v15.91h-1.746v-15.91h1.746Zm5.783 0v1.5h-13.107v-1.5h13.107ZM134.414 95.564v18.97h-1.761V92.506h1.644l.117 3.058Zm11.038 4.75v.309c0 1.186-.137 2.274-.411 3.264-.274.99-.67 1.848-1.189 2.574a5.312 5.312 0 0 1-1.893 1.661c-.754.392-1.61.588-2.569.588-.949 0-1.795-.147-2.539-.441a5.564 5.564 0 0 1-1.923-1.25 6.614 6.614 0 0 1-1.277-1.911 9.692 9.692 0 0 1-.66-2.412v-4.073c.146-.96.386-1.833.719-2.618a7.083 7.083 0 0 1 1.277-2.029 5.363 5.363 0 0 1 1.879-1.308c.724-.304 1.551-.456 2.48-.456.969 0 1.83.19 2.583.573a5.118 5.118 0 0 1 1.923 1.632c.529.706.925 1.56 1.189 2.559.274.99.411 2.103.411 3.338Zm-1.761.309v-.309c0-.931-.098-1.794-.294-2.588-.186-.794-.474-1.485-.866-2.073a4.082 4.082 0 0 0-1.468-1.397c-.587-.334-1.286-.5-2.098-.5-.842 0-1.561.142-2.158.426a4.272 4.272 0 0 0-1.468 1.103c-.391.45-.7.946-.925 1.485a8.747 8.747 0 0 0-.499 1.588v4.691c.186.745.485 1.436.896 2.073a4.613 4.613 0 0 0 1.644 1.515c.694.373 1.541.559 2.539.559.802 0 1.497-.167 2.084-.5a4.119 4.119 0 0 0 1.453-1.397c.392-.598.68-1.294.866-2.088.196-.794.294-1.657.294-2.588Z"/></g></svg>