<svg width="52" height="52" viewBox="0 0 52 52" fill="none" xmlns="http://www.w3.org/2000/svg">
<rect width="52" height="52" rx="8" fill="url(#paint0_linear_1406_1803)"/>
<path d="M23.3384 7.06702C21.7681 7.82048 21.4036 9.76611 22.6187 10.9583C23.1234 11.4447 23.5533 11.6068 24.3571 11.6068H25.0395L27.965 14.592L30.8812 17.5677V20.7437C30.8812 23.3092 30.9092 23.9673 31.012 24.1772C31.0868 24.3202 31.3953 24.6826 31.7037 24.9974L32.2645 25.5505L32.2178 26.1132C32.1243 27.0861 32.6571 28.0398 33.5357 28.5167C34.3488 28.9554 35.5546 28.717 36.2369 27.9921C36.6107 27.6011 36.9566 26.7999 36.9472 26.3421C36.9379 25.541 36.4145 24.6731 35.6667 24.2248C35.2835 23.9959 35.1246 23.9578 34.4797 23.9578C33.76 23.9578 33.7226 23.9483 33.3861 23.6144L33.0309 23.2711V19.9902V16.7189L29.7689 13.3713L26.5069 10.0332L26.5536 9.5086C26.6471 8.42134 26.2078 7.62019 25.2638 7.13378C24.5441 6.76182 24.0207 6.75229 23.3384 7.06702ZM24.6095 9.0508C24.7404 9.2797 24.7404 9.31785 24.5815 9.49906C24.1609 9.97593 23.4879 9.46091 23.8431 8.94589C24.0394 8.65977 24.4319 8.717 24.6095 9.0508ZM34.8816 26.0274C35.0218 26.1514 35.0311 26.5043 34.8816 26.6569C34.8162 26.7236 34.6573 26.7713 34.5264 26.7713C34.0778 26.7713 33.9002 26.3421 34.218 25.9893C34.3769 25.8176 34.6292 25.8271 34.8816 26.0274Z" fill="white"/>
<path d="M15.1445 6.93718C14.743 7.09863 14.1079 7.68742 13.9025 8.09578C13.613 8.64659 13.613 9.66273 13.8932 10.2135C14.3694 11.1347 15.3593 11.6665 16.3211 11.5336L16.7694 11.4766L20.3927 15.1138L24.0159 18.7511L24.0066 19.4063V20.0521L23.577 20.4415C22.2323 21.6476 22.4938 23.5944 24.128 24.4681C24.5669 24.7055 25.5381 24.677 26.0144 24.4301C26.8922 23.9648 27.3591 23.205 27.3684 22.2553C27.3684 21.5431 27.0416 20.8213 26.5186 20.394L26.1544 20.0996V19.2069C26.1544 18.6656 26.1077 18.2003 26.0237 18.0103C25.949 17.8394 24.2774 16.0635 22.1016 13.8603L18.3102 10.0141L18.3662 9.4823C18.4129 9.09293 18.3849 8.80803 18.2635 8.45665C18.0581 7.82987 17.3857 7.10812 16.8534 6.94668C16.3958 6.81372 15.462 6.80423 15.1445 6.93718ZM16.3492 8.86501C16.5172 9.08343 16.4239 9.42531 16.1437 9.57726C15.9196 9.71022 15.8822 9.71022 15.7048 9.54877C15.49 9.34934 15.4527 9.01696 15.6208 8.84602C15.7795 8.68457 16.2091 8.70357 16.3492 8.86501ZM25.2393 21.8565C25.5754 22.1414 25.4821 22.6922 25.0899 22.6922C24.6883 22.6922 24.5669 22.5972 24.5669 22.2553C24.5669 21.8185 24.9218 21.6096 25.2393 21.8565Z" fill="white"/>
<path d="M33.0336 8.34409C31.8543 8.83 31.2057 10.1008 31.5792 11.1755C32.0116 12.4089 33.3677 13.1191 34.6551 12.7734C35.0089 12.6893 35.2742 12.5117 35.6968 12.1099L36.2766 11.5679H37.5737H38.8709L40.9051 13.5022L42.9394 15.4272V16.427V17.4362L42.5954 17.6792C42.1827 17.9782 41.8092 18.5763 41.6717 19.1369C41.4555 20.0527 41.9861 21.0899 42.9394 21.6039C44.1383 22.2393 45.6811 21.8001 46.3494 20.6133C46.4673 20.3984 46.5164 20.0994 46.5263 19.6041C46.5263 18.7538 46.2708 18.2025 45.632 17.6979L45.2094 17.3615L45.2193 15.9972L45.2291 14.6329L44.7476 14.1657C44.4822 13.904 43.2931 12.7734 42.1041 11.652C40.4727 10.1008 39.8635 9.57756 39.5981 9.51215C39.4114 9.46542 38.5859 9.4187 37.7605 9.4187H36.2667L35.7459 8.92344C35.4118 8.61508 35.0678 8.39081 34.8123 8.31606C34.2816 8.16654 33.4365 8.17589 33.0336 8.34409ZM34.3504 10.3064C34.6256 10.6989 34.0261 11.2128 33.6429 10.9138C33.4758 10.7736 33.466 10.3345 33.6232 10.1849C33.8001 10.0167 34.1932 10.0822 34.3504 10.3064ZM44.4134 19.2304C44.7672 19.5668 44.5608 20.0153 44.0793 19.9592C43.4307 19.8938 43.4897 19.1556 44.1481 19.0528C44.1874 19.0528 44.3053 19.1276 44.4134 19.2304Z" fill="white"/>
<path d="M8.12201 8.33949C7.61675 8.53093 7.08343 9.00953 6.81209 9.50727C6.58753 9.91886 6.55011 10.0912 6.55011 10.7229V11.4695L3.97706 14.1018L1.40401 16.7341L1.37594 19.9694C1.35723 21.7402 1.37594 23.3004 1.40401 23.4345C1.46951 23.7025 3.51859 25.8657 3.90221 26.0763C4.10805 26.1816 4.80979 26.2103 7.59804 26.2103H11.0412L12.9313 28.1439L14.8306 30.087L18.8446 30.1348L22.8679 30.1827L23.2047 30.5847C23.3825 30.8049 23.7661 31.1016 24.0562 31.2452C25.572 32.0013 27.3684 30.7857 27.3684 28.9958C27.3684 28.096 26.6386 27.0909 25.7872 26.7942C24.8983 26.4879 23.8971 26.7751 23.2609 27.5217L22.896 27.9428L19.3311 27.962L15.7663 27.9811L13.8482 26.0189L11.9301 24.0566L8.34656 24.0279L4.77236 23.9992L4.14548 23.3579L3.50923 22.7261V20.18V17.6434L5.8203 15.2792L8.12201 12.9245L8.6179 12.9723C9.3945 13.0585 9.92782 12.8574 10.4986 12.2736C11.4716 11.2781 11.4529 9.78485 10.4331 8.85637C9.77811 8.25334 8.88924 8.05233 8.12201 8.33949ZM9.19801 10.2443C9.35707 10.407 9.33836 10.7038 9.15123 10.9143C8.96409 11.1249 8.76761 11.1345 8.54305 10.9239C8.35592 10.7516 8.32785 10.5793 8.4682 10.3113C8.58048 10.1007 9.02023 10.0624 9.19801 10.2443ZM25.4129 28.8522C25.4784 29.0436 25.469 29.1585 25.3568 29.3308C25.1135 29.7232 24.5614 29.5605 24.5614 29.101C24.5614 28.7565 24.7205 28.6033 25.048 28.6033C25.2538 28.6033 25.338 28.6607 25.4129 28.8522Z" fill="white"/>
<path d="M11.2109 15.1538C10.4767 15.4141 9.80927 16.1949 9.62811 17.0143C9.46601 17.7662 9.70439 18.4891 10.3528 19.1446C10.9249 19.723 11.4588 19.9158 12.2693 19.829L12.8033 19.7712L14.9773 21.9401L17.1512 24.109L17.1036 24.6681C16.9129 26.7213 19.1059 28.0902 20.765 26.9623C22.0618 26.0851 22.2715 24.4849 21.2418 23.3571C20.6887 22.7402 20.1929 22.5378 19.3538 22.5667L18.6768 22.586L16.5124 20.3978L14.3479 18.2192L14.3861 17.5444C14.4147 17.0046 14.3861 16.7926 14.2145 16.4455C13.957 15.9057 13.2991 15.2984 12.8033 15.1538C12.3551 15.0189 11.6019 15.0189 11.2109 15.1538ZM12.3456 17.1203C12.5458 17.3131 12.5363 17.477 12.317 17.7469C12.1644 17.9397 12.0977 17.959 11.8688 17.8818C11.3826 17.7083 11.4684 16.9661 11.9833 16.9661C12.0977 16.9661 12.2693 17.0336 12.3456 17.1203ZM19.821 24.6006C19.945 24.7259 19.9736 25.0537 19.8592 25.2272C19.7352 25.4296 19.3062 25.4778 19.1345 25.3043C18.8103 24.9766 19.001 24.4849 19.4587 24.4849C19.5922 24.4849 19.7543 24.5331 19.821 24.6006Z" fill="white"/>
<path d="M42.5141 24.8609C41.9849 25.1185 41.4657 25.6529 41.256 26.13C41.0364 26.6261 41.0763 27.4754 41.3359 28.0002C41.4557 28.2483 41.7552 28.6204 42.0049 28.8303L42.4642 29.212L39.8082 31.7597C38.3505 33.1624 37.1024 34.4028 37.0425 34.5173C36.9826 34.6318 36.9327 34.8799 36.9327 35.0612C36.9327 35.2998 36.8728 35.4238 36.733 35.5001C36.6231 35.5574 36.3536 35.815 36.1439 36.0727C35.6147 36.712 35.4549 37.3895 35.6746 38.1051C35.8443 38.6585 36.2337 39.2024 36.6531 39.4696C36.8927 39.6318 36.9327 39.7177 36.9327 40.128C36.9327 40.586 36.9027 40.6337 36.4933 40.9581C34.766 42.3513 35.7345 45.0803 37.991 45.1566C38.7798 45.1757 39.299 44.9848 39.8282 44.4791C40.3274 44.002 40.627 43.3245 40.627 42.7139C40.617 42.065 40.0878 41.149 39.5287 40.7959C39.2691 40.6337 39.2291 40.5478 39.2291 40.1662C39.2291 39.7749 39.2691 39.6986 39.6285 39.4219C39.8482 39.2597 40.1477 38.9162 40.2975 38.6681C40.5371 38.2959 40.5771 38.1146 40.5771 37.5517C40.5671 36.7597 40.3175 36.2158 39.6984 35.6624L39.289 35.2998L42.0049 32.7044C43.5625 31.2063 44.7307 30.0231 44.7307 29.9181C44.7407 29.8131 44.7506 29.6128 44.7606 29.4696C44.7706 29.2979 44.9403 29.0784 45.2698 28.7826L45.7591 28.3437H50.4319H52V26.7731V25.6719H50.4319H45.7591L45.4096 25.3284C44.9204 24.8323 44.4012 24.6223 43.6224 24.6319C43.1331 24.6319 42.8635 24.6891 42.5141 24.8609ZM44.0417 26.7597C44.1715 26.9315 44.1316 27.0937 43.9219 27.2941C43.6823 27.5231 43.4926 27.5326 43.2829 27.3322C42.9035 26.9697 43.3029 26.3208 43.7622 26.5498C43.882 26.6071 44.0018 26.7025 44.0417 26.7597ZM38.4803 37.2177C38.7499 37.4944 38.5801 37.9238 38.2007 37.962C37.6815 38.0192 37.4419 37.5707 37.8013 37.1986C38.011 36.9696 38.2506 36.9791 38.4803 37.2177ZM38.4304 42.4658C38.6999 42.7234 38.68 43.0001 38.3804 43.191C38.1508 43.3341 38.1109 43.3341 37.8812 43.191C37.5617 42.9906 37.5517 42.628 37.8513 42.4276C38.1408 42.2368 38.1907 42.2368 38.4304 42.4658Z" fill="white"/>
<path d="M10.1263 30.1834C9.45847 30.3481 8.82006 30.8421 8.5156 31.4002C8.1522 32.0772 8.12273 32.4706 8.37809 33.1019C8.64328 33.7514 8.94775 34.0991 9.54686 34.4284C9.9299 34.6389 10.1067 34.6755 10.7746 34.6755H11.5505L12.788 35.8374C13.4657 36.4686 14.1237 37.0358 14.2416 37.0907C14.3791 37.1548 15.1943 37.1914 16.4711 37.1914H18.4943L19.064 37.722C19.6827 38.2984 20.1149 38.4722 20.9202 38.4722C21.5586 38.4722 22.3247 38.1154 22.7962 37.5939L23.1497 37.1914H26.3123H29.4748L29.6516 37.4384C29.8382 37.7129 30.3784 38.1977 30.5061 38.1977C30.5454 38.1977 30.5749 39.0852 30.5749 40.1647V42.1226L30.2311 42.3787C28.7382 43.4766 28.9346 45.5168 30.5945 46.2852C31.8517 46.8708 33.3151 46.3584 34.0026 45.0868C34.4544 44.2451 34.1499 43.1198 33.2856 42.4428L32.8338 42.0951V40.1647V38.2343L33.2561 37.9599C34.0812 37.4109 34.4347 36.2308 34.0222 35.3433C33.2561 33.6782 30.9088 33.358 29.7891 34.7761L29.5436 35.078L26.3319 35.0872H23.1105L22.5997 34.5931C22.0301 34.0533 21.6372 33.8978 20.8024 33.8978C20.1443 33.8978 19.3979 34.2363 18.9854 34.7121L18.6613 35.0872H16.9327H15.2041L14.1434 34.1082L13.0826 33.1385L13.1514 32.7451C13.2987 31.8119 12.7192 30.8055 11.796 30.3847C11.1183 30.0919 10.696 30.037 10.1263 30.1834ZM11.0987 32.2327C11.1772 32.5438 11.0201 32.7451 10.6567 32.7817C10.3129 32.8183 10.087 32.5529 10.1951 32.2419C10.3326 31.8485 10.9906 31.8393 11.0987 32.2327ZM21.1658 35.8831C21.3819 36.0661 21.3917 36.2582 21.1756 36.4778C20.8515 36.8163 20.3604 36.5967 20.3604 36.121C20.3604 35.7459 20.8318 35.5995 21.1658 35.8831ZM32.0088 35.8831C32.2052 36.1301 32.1758 36.4412 31.94 36.551C31.6356 36.7065 31.2722 36.5876 31.2034 36.3131C31.0856 35.8648 31.7142 35.5263 32.0088 35.8831ZM31.9597 43.87C32.1758 43.9798 32.2151 44.4097 32.0284 44.5836C31.7534 44.8397 31.1641 44.6019 31.1641 44.2359C31.1641 44.0347 31.4195 43.7785 31.6159 43.7785C31.7043 43.7785 31.8517 43.8242 31.9597 43.87Z" fill="white"/>
<defs>
<linearGradient id="paint0_linear_1406_1803" x1="7.82584e-07" y1="26.4906" x2="52" y2="26.4906" gradientUnits="userSpaceOnUse">
<stop stop-color="#00C99F"/>
<stop offset="1" stop-color="#009ACB"/>
</linearGradient>
</defs>
</svg>
